<svg xmlns="http://www.w3.org/2000/svg" width="24" height="24" viewBox="0 0 24 24">
  <defs>
    <style id="current-color-scheme" type="text/css">
      .ColorScheme-Text { color:#c0c0c0; }
    </style>
  </defs>
  <g class="ColorScheme-Text" style="fill:currentColor;stroke:none;">
    <path d="M 11.67 0.01172 A 12 12 0 0 0 0.01758 11.66 A 8 11 45 0 0 7.758 7.758 A 8 11 45 0 0 11.67 0.01172 z M 13.64 0.127 A 10 13 45 0 1 9.172 9.172 A 10 13 45 0 1 0.125 13.64 A 12 12 0 0 0 10.35 23.88 A 10 13 45 0 1 14.82 14.82 A 10 13 45 0 1 23.87 10.34 A 12 12 0 0 0 13.64 0.127 z M 23.99 12.32 A 8 11 45 0 0 16.24 16.23 A 8 11 45 0 0 12.33 23.98 A 12 12 0 0 0 23.99 12.32 z"/>
  </g>
</svg>