<svg xmlns="http://www.w3.org/2000/svg" width="512" height="512" viewBox="0 0 512 512">
  <path style="fill:#781515;stroke:none;" d="M 256 0 A 256 256 0 0 0 194.5 7.83 A 272 272 0 0 1 204 78 A 272 272 0 0 1 13.54 337.4 A 256 256 0 0 0 256 512 A 256 256 0 0 0 512 256 A 256 256 0 0 0 256 0 z M 164.1 17.38 A 256 256 0 0 0 0 256 A 256 256 0 0 0 5.021 306.3 A 240 240 0 0 0 172 78 A 240 240 0 0 0 164.1 17.38 z M 224 151 L 237 151 C 239 154 246 155 252 155 L 314 155 C 320 155 327 154 329 151 L 342 151 C 347 165 355 177 365 190 L 357 197 C 336 175 328 175 310 175 L 300 175 L 300 276 C 302 284 310 289 318 291 L 318 301 L 248 301 L 248 291 C 256 289 264 284 266 276 L 266 175 L 256 175 C 238 175 230 175 209 197 L 201 190 C 211 177 219 165 224 151 z M 314 214 L 378 214 L 378 229 L 374 229 C 371 229 368 229 370 235 L 402 319 L 436 237 C 439 230 437 229 431 229 L 428 229 L 428 214 L 485 214 L 485 224 C 478 224 469 228 464 237 L 414 357 L 381 357 L 332 230 C 328 224 321 224 314 224 L 314 214 z M 78.75 366.7 L 88.87 366.7 L 106.5 409.7 L 107.1 409.7 L 124.7 366.7 L 134.8 366.7 L 134.8 422 L 126.9 422 L 126.9 382 L 126.4 382 L 110.1 421.9 L 103.5 421.9 L 87.2 382 L 86.69 382 L 86.69 422 L 78.75 422 L 78.75 366.7 z M 191.1 366.7 L 199.1 366.7 L 199.1 422 L 191.1 422 L 191.1 366.7 z M 251.2 366.7 L 259.3 366.7 L 259.3 387.3 L 259.8 387.3 C 260.3 386.4 260.9 385.4 261.8 384.3 C 262.7 383.1 263.9 382.1 265.5 381.3 C 267.1 380.4 269.1 380 271.7 380 C 275 380 278 380.9 280.7 382.5 C 283.3 384.2 285.3 386.7 286.8 389.9 C 288.3 393 289.1 396.9 289.1 401.4 C 289.1 405.8 288.4 409.7 286.9 412.9 C 285.4 416.1 283.3 418.5 280.7 420.2 C 278.1 422 275.1 422.8 271.8 422.8 C 269.3 422.8 267.2 422.4 265.6 421.5 C 264 420.7 262.8 419.7 261.9 418.6 C 261 417.4 260.3 416.4 259.8 415.5 L 259.1 415.5 L 259.1 422 L 251.2 422 L 251.2 366.7 z M 384.5 366.7 L 392.4 366.7 L 392.4 387.3 L 393 387.3 C 393.9 385.1 395.4 383.3 397.4 382 C 399.4 380.7 402 380 405.2 380 C 408.1 380 410.6 380.6 412.7 381.8 C 414.8 382.9 416.5 384.7 417.6 387 C 418.8 389.3 419.4 392.2 419.4 395.6 L 419.4 422 L 411.4 422 L 411.4 396.6 C 411.4 393.6 410.6 391.2 409 389.5 C 407.4 387.8 405.3 387 402.5 387 C 400.6 387 398.9 387.4 397.4 388.2 C 395.9 389 394.7 390.2 393.8 391.8 C 393 393.3 392.5 395.2 392.5 397.4 L 392.5 422 L 384.5 422 L 384.5 366.7 z M 163.7 380 C 166 380 168.3 380.4 170.5 381.2 C 172.7 381.9 174.7 383.2 176.4 384.8 C 178.1 386.5 179.5 388.6 180.5 391.3 C 181.5 393.9 182 397.1 182 400.8 L 182 403.7 L 152.6 403.7 C 152.7 406.2 153.1 408.4 154 410.2 C 155 412.1 156.4 413.6 158.2 414.7 C 159.9 415.7 162 416.2 164.3 416.2 C 165.9 416.2 167.3 416 168.5 415.5 C 169.8 415.1 170.9 414.4 171.8 413.5 C 172.7 412.6 173.4 411.6 173.9 410.3 L 181.5 411.6 C 180.9 413.9 179.8 415.9 178.2 417.5 C 176.7 419.2 174.7 420.5 172.3 421.5 C 170 422.4 167.3 422.8 164.3 422.8 C 160.2 422.8 156.6 422 153.7 420.2 C 150.8 418.5 148.5 416 146.9 412.8 C 145.3 409.6 144.5 405.8 144.5 401.5 C 144.5 397.3 145.3 393.6 146.9 390.3 C 148.5 387.1 150.7 384.5 153.6 382.7 C 156.5 380.9 159.8 380 163.7 380 z M 225.3 380 C 229.8 380 233.3 381 235.9 382.9 C 238.5 384.8 240.2 387.4 241 390.7 L 233.7 392 C 233.4 391 232.9 390.1 232.2 389.3 C 231.6 388.4 230.7 387.8 229.6 387.2 C 228.4 386.7 227.1 386.4 225.4 386.4 C 223.1 386.4 221.2 386.9 219.7 387.9 C 218.1 388.9 217.4 390.3 217.4 391.9 C 217.4 393.2 217.9 394.4 218.9 395.2 C 219.9 396 221.6 396.7 223.9 397.3 L 230.5 398.8 C 234.3 399.7 237.1 401 239 402.9 C 240.9 404.7 241.8 407.1 241.8 410 C 241.8 412.5 241.1 414.7 239.6 416.7 C 238.2 418.6 236.2 420.1 233.7 421.2 C 231.1 422.3 228.2 422.8 224.8 422.8 C 220.2 422.8 216.4 421.8 213.5 419.9 C 210.5 417.9 208.7 415 208.1 411.4 L 215.9 410.2 C 216.4 412.2 217.4 413.8 218.9 414.8 C 220.4 415.8 222.4 416.3 224.8 416.3 C 227.4 416.3 229.5 415.8 231.1 414.7 C 232.7 413.6 233.5 412.2 233.5 410.6 C 233.5 409.3 233 408.2 232 407.3 C 231.1 406.5 229.6 405.8 227.6 405.3 L 220.6 403.8 C 216.8 402.9 213.9 401.5 212 399.6 C 210.2 397.7 209.3 395.2 209.3 392.3 C 209.3 389.8 210 387.7 211.3 385.9 C 212.7 384 214.6 382.6 217 381.6 C 219.4 380.5 222.2 380 225.3 380 z M 314.5 380 C 316.2 380 317.9 380.2 319.8 380.6 C 321.7 381 323.4 381.7 325 382.7 C 326.7 383.7 328 385.2 329 387.1 C 330.1 389 330.6 391.4 330.6 394.5 L 330.6 422 L 322.7 422 L 322.7 416.3 L 322.4 416.3 C 321.9 417.4 321.1 418.4 320.1 419.4 C 319 420.4 317.7 421.3 316 421.9 C 314.4 422.6 312.4 422.9 310.2 422.9 C 307.5 422.9 305.2 422.4 303 421.5 C 300.9 420.5 299.2 419 298 417.2 C 296.8 415.3 296.1 413 296.1 410.3 C 296.1 407.9 296.6 406 297.5 404.5 C 298.4 403 299.6 401.8 301.1 400.9 C 302.7 400 304.4 399.4 306.3 398.9 C 308.2 398.5 310.1 398.1 312 397.9 C 314.5 397.6 316.5 397.4 318.1 397.2 C 319.6 397 320.8 396.7 321.5 396.3 C 322.2 395.8 322.5 395.1 322.5 394.1 L 322.5 394 C 322.5 391.6 321.8 389.8 320.5 388.5 C 319.2 387.2 317.2 386.5 314.6 386.5 C 311.9 386.5 309.8 387.1 308.2 388.3 C 306.7 389.5 305.6 390.9 305 392.3 L 297.4 390.6 C 298.3 388.1 299.6 386 301.4 384.5 C 303.1 382.9 305.1 381.8 307.4 381.1 C 309.6 380.4 312 380 314.5 380 z M 358.7 380 C 361.8 380 364.6 380.6 367.1 381.8 C 369.6 382.9 371.5 384.5 373.1 386.6 C 374.6 388.7 375.5 391.1 375.8 393.9 L 367.9 393.9 C 367.5 392 366.5 390.3 365 388.9 C 363.4 387.5 361.4 386.8 358.8 386.8 C 356.6 386.8 354.6 387.4 352.9 388.6 C 351.2 389.8 349.9 391.4 349 393.6 C 348 395.8 347.6 398.3 347.6 401.3 C 347.6 404.3 348 406.9 348.9 409.1 C 349.9 411.3 351.2 413 352.8 414.2 C 354.5 415.4 356.5 416 358.8 416 C 360.3 416 361.7 415.7 363 415.2 C 364.2 414.6 365.3 413.8 366.1 412.7 C 367 411.7 367.6 410.4 367.9 408.9 L 375.8 408.9 C 375.5 411.6 374.6 414 373.2 416.1 C 371.7 418.2 369.7 419.8 367.3 421 C 364.9 422.2 362 422.8 358.7 422.8 C 354.7 422.8 351.3 421.9 348.4 420.1 C 345.5 418.3 343.3 415.7 341.7 412.5 C 340.2 409.3 339.4 405.6 339.4 401.5 C 339.4 397.3 340.2 393.5 341.8 390.3 C 343.4 387.1 345.6 384.5 348.5 382.7 C 351.4 380.9 354.8 380 358.7 380 z M 163.7 386.7 C 161.5 386.7 159.5 387.2 157.8 388.3 C 156.1 389.4 154.8 390.9 153.9 392.7 C 153.1 394.2 152.7 395.9 152.6 397.7 L 174.1 397.7 C 174.1 395.5 173.7 393.7 172.8 392 C 172 390.4 170.8 389.1 169.2 388.1 C 167.6 387.1 165.8 386.7 163.7 386.7 z M 270 386.9 C 267.6 386.9 265.6 387.5 264 388.7 C 262.4 389.9 261.2 391.6 260.4 393.7 C 259.6 395.9 259.1 398.4 259.1 401.3 C 259.1 404.2 259.6 406.7 260.4 408.9 C 261.3 411.1 262.5 412.9 264.1 414.1 C 265.7 415.3 267.6 415.9 270 415.9 C 272.4 415.9 274.4 415.3 276 414 C 277.6 412.7 278.9 411 279.7 408.7 C 280.5 406.5 281 404 281 401.3 C 281 398.5 280.5 396.1 279.7 393.9 C 278.9 391.7 277.7 390 276 388.8 C 274.4 387.5 272.4 386.9 270 386.9 z M 322.5 401.7 C 322.3 402 321.7 402.3 320.9 402.5 C 320.1 402.7 319.1 403 318.1 403.1 C 317 403.3 316 403.4 315 403.6 C 314 403.7 313.2 403.8 312.6 403.9 C 311 404.1 309.6 404.4 308.3 404.9 C 307 405.4 306 406.1 305.2 406.9 C 304.4 407.8 304.1 409 304.1 410.4 C 304.1 412.4 304.8 413.9 306.3 414.9 C 307.7 415.9 309.6 416.4 311.9 416.4 C 314.1 416.4 316 416 317.6 415.1 C 319.2 414.2 320.4 413.1 321.3 411.7 C 322.1 410.2 322.5 408.7 322.5 407 L 322.5 401.7 z"/>
</svg>
